<?xml version="1.0" encoding="utf-8"?>
<!-- Generator: Adobe Illustrator 22.1.0, SVG Export Plug-In . SVG Version: 6.00 Build 0)  -->
<svg version="1.1" id="レイヤー_1" xmlns="http://www.w3.org/2000/svg" xmlns:xlink="http://www.w3.org/1999/xlink" x="0px"
	 y="0px" width="1000px" height="430px" viewBox="0 0 1000 430" style="enable-background:new 0 0 1000 430;" xml:space="preserve">
<g>
	<path d="M764.6,122.2c-51.3,0-92.8,41.5-92.8,92.8c0,51.2,41.5,92.8,92.8,92.8c51.2,0,92.8-41.5,92.8-92.8
		C857.4,163.8,815.9,122.2,764.6,122.2z M766.7,202.9C766.8,202.9,766.8,202.9,766.7,202.9c-0.3-1.4-0.5-3-0.5-4.5
		c0-11,8.9-19.9,19.9-19.9c5.7,0,10.9,2.4,14.5,6.3c3.7-0.7,7.2-2,10.5-3.7c0.7-0.4,1.4-0.7,2.1-1.1c-1.2,3.7-3.4,6.9-6.4,9.2
		c-0.7,0.6-1.5,1.2-2.3,1.6c0,0,0.1,0,0.1,0c0,0-0.1,0.1-0.1,0.1c3.2-0.4,6.4-1.2,9.3-2.3c0.7-0.2,1.4-0.5,2-0.8
		c-2.7,3.9-6,7.4-9.9,10.2c0.1,0.9,0.1,1.7,0.1,2.6c0,26.2-20,56.5-56.5,56.5c-11.2,0-21.7-3.3-30.4-8.9c1.6,0.2,3.1,0.3,4.8,0.3
		c6.8,0,13.2-1.7,18.7-4.7c0.1-0.1,0.2-0.1,0.4-0.2c0.4-0.2,0.7-0.4,1-0.6c1.5-0.9,3.1-1.9,4.5-3c0,0,0,0-0.1,0c0,0,0,0,0.1-0.1
		c-7.6-0.1-14.1-4.5-17.4-10.9c-0.5-0.9-0.8-1.9-1.2-2.9c1.2,0.2,2.4,0.3,3.7,0.3c1.3,0,2.6-0.2,3.8-0.4c0.5-0.1,0.9-0.1,1.4-0.2
		c0,0-0.1,0-0.1,0c0,0,0.1,0,0.1,0c-9.1-1.8-15.9-9.9-15.9-19.5v-0.2c2.1,1.2,4.5,1.9,6.9,2.3c0.7,0.1,1.4,0.2,2,0.2
		c0,0,0,0-0.1-0.1c0,0,0.1,0,0.1,0c-5.3-3.6-8.8-9.6-8.8-16.5c0-3.1,0.8-6.1,2.1-8.7c0.2-0.4,0.4-0.9,0.7-1.3
		c9.6,11.8,24,19.7,40.3,20.7C766.4,202.9,766.6,202.9,766.7,202.9C766.7,202.9,766.7,202.9,766.7,202.9z"/>
</g>
<g>
	<path d="M539.2,122.2h-77.6c-29,0-52.4,23.5-52.4,52.4v80.7c0,29,23.5,52.4,52.4,52.4h77.6c29,0,52.4-23.5,52.4-52.4v-80.7
		C591.6,145.7,568.1,122.2,539.2,122.2z M427.8,174.7c0-18.6,15.2-33.8,33.8-33.8h77.6c18.6,0,33.8,15.2,33.8,33.8v80.7
		c0,18.6-15.2,33.8-33.8,33.8h-77.6c-18.6,0-33.8-15.2-33.8-33.8V174.7z"/>
	<path d="M500.4,262.8c26.3,0,47.8-21.4,47.8-47.8s-21.4-47.8-47.8-47.8c-26.3,0-47.8,21.4-47.8,47.8S474,262.8,500.4,262.8z
		 M500.4,182.1c18.1,0,32.9,14.8,32.9,32.9s-14.8,32.9-32.9,32.9c-18.1,0-32.9-14.8-32.9-32.9S482.3,182.1,500.4,182.1z"/>
	<ellipse cx="549.6" cy="165.8" rx="10.7" ry="10.7"/>
</g>
<g>
	<path d="M318.7,122.2H153.6c-5.7,0-10.2,4.6-10.2,10.2v165.1c0,5.7,4.6,10.3,10.2,10.3h79.6v-62h-26.9h0v-31.2h27v-23
		c0-5,0.6-9.6,1.7-13.7c0-0.1,0.1-0.2,0.1-0.4c0.3-1.2,0.7-2.3,1.1-3.4c0.3-0.9,0.7-1.7,1-2.5c0.2-0.3,0.3-0.7,0.4-1
		c0.5-1.1,1.1-2.2,1.7-3.2c0,0,0.1-0.1,0.1-0.2c1.3-2.1,2.8-4.1,4.5-5.8c0,0,0.1-0.1,0.1-0.1c0.7-0.7,1.5-1.4,2.3-2.1
		c0.2-0.2,0.3-0.3,0.5-0.5c0.6-0.5,1.3-1,2-1.4c0.4-0.3,0.8-0.6,1.2-0.8c0.4-0.3,0.9-0.5,1.3-0.8c0.7-0.4,1.4-0.8,2.1-1.2
		c0.1-0.1,0.3-0.1,0.4-0.2c5.6-2.7,12.2-4,19.5-4c11.4,0,21.3,0.9,24.1,1.2v27.9h-16.5c-13,0-15.5,6.2-15.5,15.2v19.9h27.7l3.2,0
		l-4,31.2h-26.8h-0.1l0,0h-0.1v62h53.2c5.7,0,10.2-4.6,10.2-10.3V132.5C328.9,126.8,324.3,122.2,318.7,122.2z"/>
</g>
</svg>
